<svg width="95" height="93" viewBox="0 0 95 93" fill="none" xmlns="http://www.w3.org/2000/svg">
<path d="M47.5 0C53.7378 0 59.9145 1.20276 65.6775 3.5396C71.4404 5.87645 76.6768 9.30161 81.0876 13.6195C85.4984 17.9375 88.9972 23.0636 91.3843 28.7052C93.7714 34.3469 95 40.3935 95 46.5C95 58.8326 89.9956 70.66 81.0876 79.3805C72.1796 88.1009 60.0978 93 47.5 93C41.2622 93 35.0855 91.7972 29.3225 89.4604C23.5596 87.1236 18.3232 83.6984 13.9124 79.3805C5.00445 70.66 0 58.8326 0 46.5C0 34.1674 5.00445 22.34 13.9124 13.6195C22.8204 4.89909 34.9022 0 47.5 0ZM42.75 23.25C40.2304 23.25 37.8141 24.2298 36.0325 25.9739C34.2509 27.718 33.25 30.0835 33.25 32.55V60.45C33.25 62.9165 34.2509 65.282 36.0325 67.0261C37.8141 68.7702 40.2304 69.75 42.75 69.75H52.25C54.7696 69.75 57.1859 68.7702 58.9675 67.0261C60.7491 65.282 61.75 62.9165 61.75 60.45V55.8H52.25V60.45H42.75V32.55H52.25V37.2H61.75V32.55C61.75 30.0835 60.7491 27.718 58.9675 25.9739C57.1859 24.2298 54.7696 23.25 52.25 23.25H42.75Z" fill="#8AFFCF"/>
</svg>
